<svg width="341" height="260" viewBox="0 0 341 260" fill="none" xmlns="http://www.w3.org/2000/svg">
<path d="M289.938 141.369C276.958 137.855 261.673 138.548 246.847 149.34C245.882 150.042 245.67 151.394 246.372 152.358C247.075 153.323 248.425 153.535 249.39 152.833C262.984 142.938 276.87 142.306 288.809 145.539C300.831 148.794 310.841 155.97 316.33 161.552C317.166 162.403 318.535 162.414 319.385 161.578C320.236 160.742 320.247 159.374 319.411 158.523C313.491 152.503 302.834 144.86 289.938 141.369Z" fill="black"/>
<path d="M292.289 132.682C277.381 128.646 259.511 129.379 242.365 141.479L241.549 142.063L241.549 142.065C236.562 145.695 235.472 152.677 239.096 157.655L239.096 157.656C242.725 162.639 249.704 163.736 254.686 160.11C265.715 152.082 276.685 151.581 286.456 154.226C296.657 156.988 305.322 163.194 309.912 167.863C314.235 172.259 321.301 172.316 325.695 167.996L325.696 167.994C330.089 163.674 330.149 156.61 325.829 152.215L325.828 152.214C319.01 145.279 307.007 136.666 292.289 132.682ZM246.846 149.34C261.672 138.548 276.958 137.855 289.937 141.369C302.834 144.86 313.49 152.503 319.41 158.523C320.247 159.374 320.235 160.742 319.385 161.578C318.534 162.414 317.166 162.403 316.329 161.552C310.84 155.97 300.83 148.794 288.808 145.539C276.869 142.307 262.983 142.938 249.389 152.833C248.485 153.491 247.242 153.345 246.511 152.53L246.372 152.358C245.67 151.394 245.882 150.042 246.846 149.34Z" fill="white"/>
<path fill-rule="evenodd" clip-rule="evenodd" d="M33.5559 80.5957C36.2065 75.646 39.0482 80.8093 41.8662 75.2655C41.8662 75.2655 40.5926 71.9262 45.7166 71.0865C50.8406 70.2469 58.0375 62.3047 62.7086 63.5443C67.4004 64.7895 71.7752 62.4393 75.3377 65.2646C79.9903 68.9546 78.2935 80.1662 78.2935 80.1662L79.8102 79.8616C79.8102 79.8616 81.5342 80.582 82.6728 80.9468C87.4093 82.4643 90.7819 80.1575 95.3588 82.1023C98.4507 83.4161 102.406 87.0296 102.406 87.0296C102.406 87.0296 103.843 85.1521 104.774 83.9574C106.688 81.5009 107.088 79.3488 109.746 77.7226C111.186 76.8418 112.108 76.3624 113.787 76.1872C115.112 76.049 115.858 76.6771 117.182 76.527C120.246 76.1796 121.208 73.8749 123.591 71.9194C124.489 71.1822 124.905 70.662 125.844 69.9768C126.662 69.3799 127.151 69.0827 128.04 68.5991C129.96 67.5559 133.27 66.6122 133.27 66.6122C133.27 66.6122 135.388 65.2412 136.893 64.6925C140.021 63.5517 142.102 64.6088 145.404 64.175C149.988 63.5727 152.361 64.3021 156.255 67.6572C157.349 68.6002 157.785 69.3473 158.471 70.6176C161.502 76.2263 162.084 80.0577 159.073 85.0555L160.567 86.1177C160.567 86.1177 161.388 87.6509 161.561 88.7276C161.911 90.901 161.114 92.2186 160.098 94.1725C159.437 95.4416 157.968 97.1544 157.968 97.1544C157.968 97.1544 158.669 99.5916 158.045 100.928C157.159 102.823 153.234 103.299 153.234 103.299C153.234 103.299 152.017 106.624 150.458 108.156C148.541 110.039 144.22 111.069 144.22 111.069C144.22 111.069 143.961 112.273 143.574 112.944C142.285 115.178 137.393 115.292 137.393 115.292C137.393 115.292 131.901 119.307 127.828 119.47C125.784 119.552 122.645 118.723 122.645 118.723C122.645 118.723 123.285 120.485 123.492 121.66C123.862 123.764 123.398 127.128 123.398 127.128C125.154 128.433 127.175 129.213 129.156 130.101C132.479 127.629 136.508 126.43 140.567 125.766C143.855 124.564 146.956 122.917 149.952 121.114C152.948 119.31 153.166 120.979 153.166 120.979C153.166 120.979 157.837 116.203 161.657 116.123C162.901 116.097 164.814 116.553 164.814 116.553C164.814 116.553 169.589 112.618 171.414 114.589C171.691 114.889 172.013 115.448 172.013 115.448C172.013 115.448 173.818 114.4 175.103 114.274C176.804 114.107 179.335 115.382 179.335 115.382C179.335 115.382 177.183 112.146 176.928 109.778C176.776 108.367 177.179 106.152 177.179 106.152C177.179 106.152 174.305 102.325 174.083 99.4517C173.693 94.43 181.117 88.6308 181.117 88.6308C181.117 88.6308 181.307 85.3008 182.105 83.3666C183.458 80.0862 185 78.0789 188.266 76.6803C189.804 76.0216 191.606 75.2169 192.612 76.6588C192.612 76.6588 196.45 75.9198 198.803 76.4796C199.966 76.7564 201.665 77.5648 201.665 77.5648C201.665 77.5648 207.848 73.5395 210.528 75.8273C210.934 76.1742 211.455 76.8329 211.455 76.8329C211.455 76.8329 214.707 77.3747 216.434 78.4723C219.285 80.2843 220.372 83.0951 221.499 86.0539C221.499 86.0539 226.663 88.0112 228.694 90.6536C230.847 93.4547 232.771 98.3651 232.942 101.805C233.106 105.102 229.972 109.723 229.972 109.723C229.972 109.723 232.219 112.732 232.527 115C232.927 117.947 231.999 119.799 230.417 122.32C229.802 123.3 229.4 123.827 228.582 124.647C227.562 125.67 226.952 126.307 225.616 126.86C223.672 127.665 220.229 127.006 220.229 127.006C220.229 127.006 220.253 130.187 219.388 131.942C217.899 134.963 215.368 135.498 212.266 136.821C210.711 137.484 208.135 138.119 208.135 138.119L207.907 140.378L214.713 151.101C214.713 151.101 218.388 150.356 220.281 151.43C221.247 151.977 222.374 153.351 222.374 153.351C222.374 153.351 226.755 153.919 229.288 155.07C231.357 156.011 233.076 156.249 234.169 158.24C234.871 159.519 234.885 161.906 234.885 161.906C234.885 161.906 236.449 161.81 237.001 162.46C237.323 162.838 237.453 163.646 237.453 163.646C237.453 163.646 238.366 164.067 238.856 164.471C240.014 165.428 240.688 167.85 240.688 167.85C240.688 167.85 244.186 170.47 245.8 172.697C247.492 175.032 248.567 176.534 248.897 179.397C249.332 183.181 248.192 185.634 245.903 188.683C244.62 190.392 244.011 192.38 241.872 192.387C241.156 192.39 240.084 191.98 240.084 191.98C240.084 191.98 238.965 192.904 238.125 193.267C234.643 194.776 232.311 191.676 229.119 189.628C225.794 187.493 221.824 182.621 221.824 182.621C221.824 182.621 218.274 185.451 215.586 185.535C214.698 185.562 213.323 185.308 213.323 185.308L210.57 188.798C210.57 188.798 211.211 189.54 211.588 190.041C214.153 193.449 214.815 196.032 215.475 200.243C215.698 201.67 215.972 202.494 215.79 203.926C215.488 206.295 214.635 207.646 212.957 209.348C210.743 211.594 206.269 213.025 203.03 212.577C202.046 212.44 200.586 211.876 200.586 211.876C200.586 211.876 195.109 209.505 193.595 206.384C193.292 205.759 192.962 204.723 192.962 204.723L189.942 201.796C189.942 201.796 187.567 203.058 185.901 203.331C182.269 203.927 178.623 203.568 177.856 201.499C177.856 201.499 171.452 202.675 168.089 200.864C166.485 200 164.503 197.881 164.503 197.881L161.765 197.835C161.765 197.835 159.404 202.699 156.555 204.16C155.76 204.568 154.415 204.973 154.415 204.973C154.415 204.973 153.709 206.61 152.818 207.209C152.241 207.597 151.846 207.772 151.154 207.842C149.964 207.962 148.291 206.756 148.291 206.756L145.496 207.275C145.496 207.275 144.343 212.999 141.722 215.228C139.222 217.353 133.697 217.733 133.697 217.733L116.145 233.093C116.145 233.093 114.458 235.685 113.008 237.001C108.319 241.256 103.3 241.74 97.1276 240.319C93.7036 239.53 91.9275 238.361 89.0722 236.317C86.9069 234.767 85.3192 234.046 84.0502 231.707C81.2689 226.581 88.4049 217.423 88.4049 217.423L80.016 221.832C80.016 221.832 78.3333 224.78 76.8218 226.305C74.6156 228.531 72.9435 229.462 69.9948 230.528C66.0949 231.939 63.4628 232.133 59.4013 231.294C54.2662 230.234 50.6953 228.708 47.9979 224.219C45.8639 220.668 46.1936 213.769 46.1936 213.769C46.1936 213.769 46.6487 212.007 47.3723 211.148C48.3401 210 50.7573 209.319 50.7573 209.319C50.7573 209.319 51.4738 208.283 52.0598 207.738C54.0276 205.908 58.659 205.774 58.659 205.774C58.659 205.774 59.5174 202.474 60.8689 200.86C62.1207 199.365 64.9336 197.958 64.9336 197.958C64.9336 197.958 68.954 194.643 70.7998 191.927C73.0089 188.675 91.7746 176.624 91.7746 176.624L90.7486 170.36C87.0837 171.354 77.4879 175.663 73.8705 176.772C68.194 178.513 58.6021 178.464 53.4152 175.581C48.7028 172.961 43.1247 168.462 40.368 163.834C37.643 159.26 32.7083 142.3 41.4185 139.806L40.1331 132.146C37.2628 128.234 38.4762 121.368 36.4072 118.08C34.3382 114.792 27.6694 108.097 27.6357 100.771C27.6021 93.445 33.8401 104.034 30.6257 97.1904C27.4114 90.3471 32.433 86.2643 33.5559 80.5957Z" fill="white"/>
<path d="M53.8273 52.0715C51.2501 53.1366 48.9048 54.6042 47.3638 55.5907C45.448 56.8171 44.4992 57.4738 43.3911 58.1102C43.1609 58.2424 42.9866 58.3358 42.8634 58.3985C38.3525 59.2969 33.6597 61.7019 30.9277 66.3138C30.7387 66.3871 30.5486 66.4637 30.3591 66.5466C26.4922 68.2367 23.9979 71.115 22.3983 73.9013L22.0897 74.4573L21.1754 76.1638L20.7998 78.0636C20.8083 78.0204 20.7658 78.2709 20.3099 79.285C20.0578 79.8459 18.9861 82.0648 18.3253 83.7831C17.3987 86.1927 16.6303 89.0858 16.5681 92.3484C16.2129 93.0011 15.938 93.623 15.7257 94.1832C15.1973 95.5772 14.9409 96.8707 14.8062 97.8922C14.703 98.6749 14.6546 99.4296 14.6383 100.134L14.6318 100.822L14.6448 101.512C14.8712 108.597 18.0323 114.405 20.3204 117.962C21.5818 119.923 22.8762 121.642 23.8197 122.882C24.2216 123.41 24.5181 123.798 24.7818 124.148C24.8496 124.636 24.9225 125.286 25.0584 126.418C25.2208 127.771 25.4837 129.849 26.0417 132.006C26.2915 132.971 26.6292 134.071 27.1034 135.237C26.1887 136.643 25.4761 138.119 24.9508 139.588C23.3216 144.143 23.3309 148.799 23.6586 152.256C24.3031 159.058 26.731 166.339 29.1955 170.477C33.5672 177.816 41.2977 183.712 47.0998 186.937C49.2721 188.145 51.6042 189.003 53.9268 189.608C53.0748 190.281 52.1437 191.107 51.2773 192.073L50.8949 192.515L50.497 193.007C50.1298 193.479 49.7954 193.961 49.4895 194.439C47.5152 195.173 45.2191 196.341 43.1981 198.22C43.0931 198.318 42.9909 198.418 42.8906 198.516C41.4917 199.234 39.4329 200.497 37.6666 202.491L37.4246 202.772L37.0807 203.194C35.4207 205.314 34.5934 207.517 34.3253 208.237C34.1055 208.826 33.94 209.343 33.8272 209.716C33.7694 209.907 33.7216 210.073 33.6846 210.206C33.666 210.273 33.6502 210.333 33.6364 210.384C33.6296 210.409 33.6231 210.433 33.6175 210.455C33.6147 210.465 33.6117 210.476 33.6092 210.485C33.6079 210.49 33.6067 210.496 33.6055 210.5C33.6049 210.502 33.6045 210.505 33.6039 210.507L33.6028 210.51C33.6023 210.511 33.6022 210.513 45.9188 213.698L33.602 210.513L33.2679 211.806L33.2045 213.14L46.1935 213.769C33.2967 213.144 33.2048 213.142 33.2041 213.144C33.2041 213.145 33.2037 213.147 33.2037 213.149C33.2035 213.152 33.2033 213.155 33.2031 213.158C33.2028 213.165 33.2031 213.172 33.2028 213.179C33.2021 213.194 33.2016 213.211 33.2009 213.229C33.1993 213.266 33.1975 213.31 33.1956 213.361C33.1919 213.461 33.1876 213.589 33.1838 213.741C33.1763 214.045 33.1702 214.452 33.1719 214.939C33.1752 215.898 33.2087 217.235 33.3377 218.753C33.5443 221.184 34.1409 226.395 36.8512 230.905C39.2693 234.929 42.3996 238.061 46.3119 240.309C49.9607 242.404 53.7203 243.39 56.7786 244.022C59.5637 244.597 62.4959 244.95 65.7078 244.717C68.9177 244.484 71.7652 243.713 74.4292 242.749C74.8743 242.588 75.3088 242.421 75.7365 242.252C76.4925 243.067 77.2726 243.782 78.0613 244.418C78.9092 245.103 79.7176 245.658 80.2355 246.011C80.8542 246.432 81.1286 246.612 81.5043 246.881C84.7598 249.211 88.2336 251.605 94.2155 252.983C98.2873 253.92 102.994 254.478 107.962 253.575C113.151 252.631 117.757 250.252 121.753 246.625C123.467 245.069 124.874 243.234 125.566 242.301C125.687 242.138 125.8 241.979 125.909 241.828L139.424 230.001C139.446 229.996 139.469 229.993 139.491 229.988C141.443 229.573 146.257 228.44 150.152 225.128C151.803 223.725 153.092 222.099 154.089 220.529C156.563 220.037 158.487 219.067 160.083 217.993C161.247 217.21 162.202 216.316 162.962 215.475C163.886 214.965 164.735 214.389 165.51 213.783C168.97 214.839 172.262 214.901 174.142 214.86C175.858 215.62 177.414 216 178.416 216.188C180.66 216.608 182.901 216.654 184.938 216.514C187.147 218.974 189.549 220.548 190.723 221.289C191.939 222.056 193.049 222.651 193.851 223.056C194.259 223.262 194.607 223.429 194.873 223.552C195.006 223.614 195.121 223.666 195.213 223.707C195.259 223.728 195.3 223.746 195.335 223.761L195.404 223.792C195.408 223.794 195.411 223.795 195.414 223.796C195.416 223.797 195.418 223.798 195.419 223.798L200.585 211.876L195.902 223.996L195.915 224.002C195.92 224.004 195.926 224.005 195.932 224.008C195.945 224.012 195.959 224.018 195.974 224.024C196.005 224.036 196.042 224.05 196.085 224.066C196.171 224.099 196.281 224.139 196.411 224.186C196.667 224.278 197.021 224.403 197.434 224.537C198.053 224.738 199.569 225.216 201.253 225.449C205.29 226.008 209.239 225.357 212.392 224.337C215.504 223.329 219.223 221.515 222.222 218.474C223.45 217.229 225.025 215.471 226.314 213.103C227.675 210.602 228.372 208.068 228.69 205.574C228.717 205.362 228.739 205.153 228.759 204.948C230.134 205.589 231.838 206.192 233.83 206.483C236.932 206.935 240.03 206.527 242.926 205.348C245.268 205.195 247.554 204.536 249.642 203.353C251.888 202.08 253.387 200.497 254.293 199.386C255.141 198.346 255.791 197.303 256.015 196.949C256.367 196.395 256.355 196.423 256.307 196.486C257.769 194.539 259.529 191.93 260.688 188.637C261.927 185.12 262.234 181.558 261.815 177.921C261.065 171.406 258.086 167.503 256.33 165.08C254.723 162.861 252.68 160.961 251.43 159.863C250.689 158.448 249.415 156.429 247.427 154.701C247.265 154.485 247.095 154.267 246.913 154.053C246.677 153.776 246.436 153.517 246.194 153.272C246.009 152.849 245.802 152.421 245.568 151.994L245.373 151.647C243.328 148.104 240.548 146.002 238.058 144.716C237.004 144.172 236.009 143.781 235.551 143.6C234.946 143.36 234.816 143.309 234.665 143.24C232.607 142.305 230.395 141.7 228.763 141.324C229.335 140.603 229.875 139.816 230.375 138.957C230.45 138.927 230.526 138.898 230.601 138.866C234.594 137.213 236.821 134.802 237.795 133.826C239.385 132.231 240.376 130.918 241.436 129.229C243.431 126.049 246.448 120.884 245.413 113.261C245.235 111.954 244.907 110.723 244.527 109.616C245.333 107.389 246.091 104.402 245.93 101.169C245.754 97.6232 244.773 94.1277 243.701 91.337C242.613 88.5066 241.042 85.3909 239.004 82.7405L238.735 82.3987C236.421 79.5314 233.45 77.5891 231.513 76.4832C229.963 73.5577 227.478 70.0955 223.407 67.5077L222.907 67.2015C221.021 66.0891 219.075 65.3985 217.732 64.9932C213.885 62.3131 209.78 62.0125 207.248 62.1598C204.567 62.3158 202.245 63.0265 200.685 63.6076C198.428 63.2141 196.276 63.2413 194.799 63.3293C192.442 62.7248 190.354 62.806 188.897 63.0017C185.991 63.3923 183.349 64.6437 183.138 64.7345C180.01 66.0741 177.145 67.9727 174.73 70.6984C174.187 71.3113 173.695 71.9355 173.248 72.561C172.442 69.4681 171.152 66.7427 169.912 64.4481C169.021 62.7984 167.677 60.3446 164.742 57.816C162.267 55.6841 159.13 53.3558 155.029 52.0498C150.805 50.7045 146.913 50.8675 143.706 51.2884C143.678 51.2896 143.612 51.2913 143.485 51.2877C142.888 51.2706 143.029 51.2551 141.737 51.1893C139.676 51.0843 136.363 51.0478 132.427 52.4833L131.742 52.7478C130.166 53.3876 128.771 54.1654 128.042 54.5831C127.988 54.6142 127.935 54.6458 127.882 54.6762C127.651 54.752 127.403 54.8333 127.144 54.9222C125.953 55.3308 123.786 56.1138 121.821 57.1816C120.532 57.8823 119.538 58.4802 118.169 59.4802C117.122 60.2447 116.368 60.9239 115.879 61.375C115.385 61.8309 115.413 61.8078 115.332 61.8741C114.783 62.3248 114.291 62.7695 113.862 63.1776C113.404 63.1849 112.925 63.2097 112.429 63.2614L112.01 63.3087C107.734 63.8339 104.964 65.4055 102.951 66.6367C101.415 67.5762 100.162 68.6044 99.1273 69.6324C95.9723 68.5131 93.1081 68.2685 90.9313 68.2751C90.7368 67.2904 90.4872 66.2732 90.1643 65.2497C89.2416 62.3243 87.375 58.2265 83.4167 55.0872L82.8851 54.6791C77.3737 50.6034 71.5296 50.7298 68.9559 50.8252C66.1722 50.9283 65.9119 50.9499 65.9678 50.967C60.7501 49.606 56.2259 51.0803 53.8273 52.0715ZM195.423 223.8L195.659 223.902L195.9 223.996L200.585 211.876L195.423 223.8ZM45.7168 71.0863C50.8407 70.2465 58.0374 62.3048 62.7085 63.5441C67.4002 64.7893 71.7754 62.4392 75.3379 65.2645C79.9737 68.9413 78.3056 80.0857 78.2936 80.1657L79.8099 79.8613C79.8099 79.8613 81.5343 80.5816 82.6729 80.9464C87.4093 82.4639 90.782 80.1574 95.3589 82.1021C98.4507 83.4159 102.407 87.0295 102.407 87.0295C102.424 87.0075 103.848 85.145 104.774 83.9573C106.688 81.5009 107.088 79.3485 109.746 77.7224C111.186 76.8417 112.108 76.3621 113.788 76.1869C115.112 76.0489 115.858 76.677 117.182 76.527C120.246 76.1796 121.208 73.8749 123.59 71.9194C124.488 71.1822 124.906 70.6618 125.844 69.9766C126.662 69.3797 127.151 69.0824 128.04 68.5989C129.96 67.5557 133.27 66.6119 133.27 66.6119C133.297 66.5949 135.398 65.2377 136.893 64.6924C140.021 63.5516 142.102 64.6086 145.404 64.1749C149.988 63.5726 152.361 64.3023 156.255 67.6574C157.349 68.6004 157.785 69.3475 158.472 70.6178C161.502 76.2263 162.083 80.0578 159.073 85.0554L160.567 86.1176C160.567 86.1176 161.388 87.6509 161.561 88.7276C161.911 90.9009 161.114 92.2187 160.098 94.1725C159.437 95.4416 157.968 97.1546 157.968 97.1546C157.976 97.1815 158.666 99.5994 158.045 100.928C157.165 102.811 153.284 103.293 153.234 103.299C153.231 103.308 152.015 106.625 150.458 108.155C148.546 110.035 144.239 111.064 144.22 111.068C144.22 111.068 143.961 112.272 143.574 112.944C142.285 115.178 137.393 115.292 137.393 115.292C137.352 115.322 131.886 119.307 127.828 119.469C125.784 119.551 122.645 118.722 122.645 118.722C122.645 118.722 123.284 120.484 123.491 121.66C123.86 123.756 123.401 127.106 123.398 127.128C125.154 128.433 127.175 129.213 129.157 130.101C132.479 127.629 136.508 126.43 140.567 125.766C143.855 124.564 146.956 122.917 149.952 121.113C152.935 119.318 153.165 120.965 153.167 120.979C153.209 120.935 157.855 116.203 161.657 116.123C162.895 116.097 164.793 116.548 164.814 116.553C164.814 116.553 169.589 112.618 171.414 114.589C171.691 114.889 172.012 115.447 172.012 115.448C172.012 115.448 173.819 114.4 175.103 114.274C176.798 114.107 179.317 115.373 179.335 115.382C179.335 115.382 177.183 112.146 176.928 109.778C176.777 108.37 177.177 106.161 177.179 106.152C177.154 106.119 174.304 102.312 174.083 99.4511C173.695 94.44 181.087 88.6551 181.117 88.631C181.117 88.631 181.307 85.3011 182.105 83.3668C183.458 80.0865 185 78.0789 188.266 76.6803C189.804 76.0216 191.606 75.2168 192.612 76.6587C192.643 76.6526 196.46 75.9221 198.803 76.4796C199.966 76.7564 201.666 77.5648 201.666 77.5648C201.71 77.5358 207.858 73.5478 210.528 75.8273C210.934 76.1743 211.456 76.833 211.456 76.833C211.501 76.8406 214.719 77.3828 216.434 78.4725C219.285 80.2846 220.372 83.095 221.499 86.0536C221.499 86.0536 226.663 88.0113 228.694 90.6536C230.847 93.4547 232.771 98.3655 232.942 101.805C233.106 105.103 229.972 109.723 229.972 109.723C229.972 109.723 232.219 112.732 232.527 115C232.927 117.947 231.999 119.799 230.417 122.32C229.802 123.3 229.4 123.827 228.582 124.647C227.562 125.67 226.952 126.307 225.616 126.86C223.671 127.665 220.229 127.006 220.229 127.006C220.229 127.035 220.249 130.196 219.388 131.942C217.899 134.963 215.368 135.499 212.267 136.821C210.711 137.484 208.135 138.119 208.135 138.119L207.908 140.378L214.714 151.101C214.759 151.091 218.4 150.363 220.282 151.43C221.247 151.977 222.374 153.351 222.374 153.351C222.422 153.357 226.77 153.925 229.288 155.07C231.358 156.011 233.076 156.25 234.169 158.24C234.867 159.511 234.885 161.875 234.885 161.906C234.885 161.906 236.449 161.81 237.001 162.46C237.319 162.833 237.45 163.629 237.453 163.646C237.453 163.646 238.367 164.066 238.856 164.471C240.008 165.423 240.681 167.825 240.688 167.849C240.711 167.866 244.191 170.477 245.8 172.698C247.491 175.032 248.567 176.535 248.897 179.398C249.332 183.181 248.191 185.634 245.903 188.683C244.62 190.392 244.011 192.379 241.871 192.387C241.155 192.389 240.084 191.98 240.084 191.98C240.084 191.98 238.965 192.903 238.125 193.267C234.643 194.775 232.31 191.676 229.119 189.628C225.798 187.496 221.834 182.634 221.824 182.622C221.79 182.649 218.261 185.452 215.586 185.535C214.698 185.562 213.323 185.308 213.323 185.308L210.57 188.798C210.579 188.808 211.214 189.543 211.588 190.041C214.153 193.449 214.815 196.032 215.475 200.243C215.698 201.669 215.971 202.494 215.789 203.926C215.488 206.295 214.635 207.646 212.957 209.348C210.743 211.594 206.27 213.025 203.03 212.576C202.046 212.44 200.585 211.876 200.585 211.876C200.535 211.854 195.102 209.49 193.595 206.383C193.292 205.759 192.962 204.722 192.962 204.722L189.942 201.796C189.909 201.814 187.556 203.06 185.902 203.332C182.27 203.927 178.624 203.568 177.856 201.499C177.856 201.499 171.453 202.675 168.09 200.864C166.485 200 164.503 197.881 164.503 197.881L161.765 197.835C161.765 197.835 159.404 202.698 156.555 204.16C155.76 204.568 154.415 204.973 154.415 204.973C154.411 204.983 153.706 206.612 152.818 207.21C152.241 207.597 151.846 207.772 151.154 207.841C149.964 207.962 148.291 206.756 148.291 206.756L145.496 207.275C145.496 207.275 144.343 212.999 141.723 215.228C139.222 217.353 133.696 217.734 133.696 217.734L116.146 233.093C116.143 233.098 114.456 235.686 113.008 237.001C108.319 241.256 103.3 241.741 97.1274 240.319C93.7035 239.531 91.9276 238.361 89.0725 236.317C86.9072 234.767 85.3193 234.046 84.0502 231.707C81.2751 226.593 88.3727 217.463 88.4044 217.423L80.0163 221.832C80.0163 221.832 78.333 224.78 76.8214 226.305C74.6153 228.53 72.9435 229.461 69.9949 230.528C66.0949 231.939 63.4629 232.132 59.4015 231.294C54.2664 230.233 50.6955 228.708 47.9981 224.219C45.8641 220.668 46.1935 213.769 46.1935 213.769C46.1956 213.761 46.6501 212.005 47.3719 211.148C48.3328 210.008 50.7225 209.329 50.7569 209.319C50.7569 209.319 51.4735 208.283 52.0595 207.738C54.0213 205.913 58.6305 205.774 58.6589 205.773C58.6656 205.748 59.5225 202.467 60.8687 200.86C62.1205 199.365 64.9338 197.957 64.9338 197.957C64.9734 197.924 68.9635 194.63 70.8001 191.927C73.0036 188.683 91.6781 176.686 91.7743 176.624L90.7482 170.36C87.083 171.354 77.4879 175.663 73.8707 176.772C68.1941 178.513 58.6017 178.464 53.4149 175.581C48.7026 172.961 43.125 168.462 40.3684 163.834C37.6433 159.259 32.7087 142.3 41.4189 139.806L40.133 132.146C37.2629 128.234 38.4764 121.368 36.4078 118.08C34.3387 114.792 27.669 108.096 27.6353 100.771C27.6018 93.4451 33.8402 104.033 30.6258 97.1898C27.4119 90.3469 32.4325 86.2642 33.5556 80.5958C36.2061 75.6461 39.0485 80.8091 41.8664 75.2653C41.8597 75.2476 40.6065 71.9237 45.7168 71.0863ZM118.434 63.7056C118.566 63.7312 118.579 63.7398 118.438 63.7069C118.437 63.7065 118.435 63.7059 118.434 63.7056ZM84.8161 67.8698L84.8177 67.8713C84.8154 67.8704 84.8139 67.8696 84.8139 67.8696L84.8161 67.8698ZM37.3955 65.1592C37.5968 65.1462 37.6329 65.1565 37.4447 65.1593C37.443 65.1593 37.4262 65.16 37.3955 65.1592Z" fill="white"/>
<path fill-rule="evenodd" clip-rule="evenodd" d="M34.6809 80.3957C37.3315 75.4461 40.1732 80.6094 42.9912 75.0655C42.9912 75.0655 41.7177 71.7262 46.8417 70.8866C51.9657 70.0469 59.1626 62.1047 63.8336 63.3444C68.5254 64.5895 72.9002 62.2393 76.4627 65.0647C81.1153 68.7547 79.4185 79.9663 79.4185 79.9663L80.9352 79.6616C80.9352 79.6616 82.6592 80.3821 83.7978 80.7469C88.5343 82.2643 91.907 79.9576 96.4838 81.9024C99.5757 83.2161 103.531 86.8296 103.531 86.8296C103.531 86.8296 104.968 84.9521 105.899 83.7574C107.813 81.301 108.213 79.1488 110.871 77.5227C112.311 76.6418 113.233 76.1624 114.912 75.9873C116.237 75.8491 116.983 76.4771 118.307 76.327C121.371 75.9796 122.333 73.6749 124.716 71.7194C125.614 70.9822 126.03 70.462 126.969 69.7769C127.787 69.1799 128.276 68.8828 129.165 68.3992C131.085 67.356 134.395 66.4122 134.395 66.4122C134.395 66.4122 136.513 65.0413 138.018 64.4926C141.146 63.3518 143.227 64.4088 146.529 63.9751C151.113 63.3728 153.486 64.1022 157.38 67.4572C158.474 68.4003 158.91 69.1473 159.596 70.4176C162.627 76.0263 163.209 79.8578 160.198 84.8555L161.692 85.9178C161.692 85.9178 162.513 87.451 162.686 88.5277C163.036 90.701 162.239 92.0187 161.223 93.9725C160.562 95.2416 159.093 96.9544 159.093 96.9544C159.093 96.9544 159.794 99.3917 159.17 100.728C158.284 102.623 154.359 103.099 154.359 103.099C154.359 103.099 153.142 106.424 151.583 107.956C149.666 109.839 145.345 110.869 145.345 110.869C145.345 110.869 145.086 112.073 144.699 112.744C143.41 114.978 138.518 115.092 138.518 115.092C138.518 115.092 133.026 119.107 128.953 119.27C126.909 119.352 123.77 118.523 123.77 118.523C123.77 118.523 124.41 120.285 124.617 121.461C124.987 123.564 124.523 126.928 124.523 126.928C126.279 128.233 128.3 129.014 130.281 129.901C133.604 127.429 137.633 126.23 141.692 125.566C144.98 124.364 148.081 122.717 151.077 120.914C154.073 119.11 154.291 120.779 154.291 120.779C154.291 120.779 158.962 116.003 162.782 115.923C164.026 115.897 165.939 116.353 165.939 116.353C165.939 116.353 170.714 112.418 172.539 114.389C172.816 114.689 173.138 115.248 173.138 115.248C173.138 115.248 174.943 114.2 176.228 114.074C177.929 113.907 180.46 115.182 180.46 115.182C180.46 115.182 178.308 111.946 178.053 109.578C177.901 108.167 178.304 105.952 178.304 105.952C178.304 105.952 175.43 102.125 175.208 99.2517C174.818 94.2301 182.242 88.4309 182.242 88.4309C182.242 88.4309 182.432 85.1009 183.23 83.1667C184.583 79.8863 186.125 77.879 189.391 76.4803C190.929 75.8216 192.731 75.0169 193.737 76.4588C193.737 76.4588 197.575 75.7198 199.928 76.2796C201.091 76.5564 202.79 77.3649 202.79 77.3649C202.79 77.3649 208.973 73.3395 211.653 75.6273C212.059 75.9743 212.58 76.633 212.58 76.633C212.58 76.633 215.832 77.1748 217.559 78.2723C220.41 80.0844 221.497 82.8951 222.624 85.8539C222.624 85.8539 227.788 87.8113 229.819 90.4536C231.972 93.2547 233.896 98.1651 234.067 101.605C234.231 104.902 231.097 109.523 231.097 109.523C231.097 109.523 233.344 112.532 233.652 114.8C234.052 117.747 233.124 119.599 231.542 122.12C230.927 123.1 230.525 123.627 229.707 124.447C228.687 125.47 228.077 126.107 226.741 126.66C224.797 127.465 221.354 126.806 221.354 126.806C221.354 126.806 221.378 129.987 220.513 131.742C219.024 134.764 216.493 135.298 213.391 136.621C211.836 137.284 209.26 137.919 209.26 137.919L209.032 140.178L215.838 150.901C215.838 150.901 219.513 150.156 221.406 151.23C222.372 151.777 223.499 153.151 223.499 153.151C223.499 153.151 227.88 153.719 230.413 154.87C232.482 155.811 234.201 156.049 235.294 158.04C235.996 159.319 236.01 161.706 236.01 161.706C236.01 161.706 237.574 161.61 238.126 162.26C238.448 162.638 238.578 163.446 238.578 163.446C238.578 163.446 239.491 163.867 239.981 164.271C241.139 165.228 241.813 167.65 241.813 167.65C241.813 167.65 245.311 170.27 246.925 172.497C248.617 174.832 249.692 176.334 250.022 179.197C250.457 182.981 249.317 185.434 247.028 188.483C245.745 190.192 245.136 192.18 242.997 192.187C242.281 192.19 241.209 191.78 241.209 191.78C241.209 191.78 240.09 192.704 239.25 193.067C235.768 194.576 233.436 191.476 230.244 189.428C226.919 187.293 222.949 182.422 222.949 182.422C222.949 182.422 219.399 185.251 216.711 185.335C215.823 185.362 214.448 185.108 214.448 185.108L211.695 188.598C211.695 188.598 212.336 189.34 212.713 189.841C215.278 193.249 215.94 195.832 216.6 200.043C216.823 201.47 217.097 202.294 216.915 203.726C216.613 206.095 215.76 207.446 214.082 209.148C211.868 211.394 207.394 212.825 204.155 212.377C203.171 212.24 201.711 211.676 201.711 211.676C201.711 211.676 196.234 209.305 194.72 206.184C194.417 205.559 194.087 204.523 194.087 204.523L191.067 201.596C191.067 201.596 188.692 202.858 187.026 203.131C183.394 203.727 179.748 203.368 178.981 201.299C178.981 201.299 172.577 202.476 169.214 200.664C167.61 199.8 165.628 197.681 165.628 197.681L162.89 197.635C162.89 197.635 160.529 202.499 157.68 203.96C156.885 204.368 155.54 204.773 155.54 204.773C155.54 204.773 154.834 206.41 153.943 207.009C153.366 207.397 152.971 207.572 152.279 207.642C151.089 207.762 149.416 206.556 149.416 206.556L146.621 207.075C146.621 207.075 145.468 212.799 142.847 215.028C140.347 217.153 134.822 217.534 134.822 217.534L117.27 232.893C117.27 232.893 115.583 235.486 114.133 236.801C109.444 241.056 104.425 241.54 98.2526 240.119C94.8286 239.33 93.0525 238.161 90.1972 236.117C88.0319 234.567 86.4443 233.846 85.1752 231.507C82.3939 226.381 89.5299 217.223 89.5299 217.223L81.1411 221.632C81.1411 221.632 79.4583 224.58 77.9468 226.105C75.7406 228.331 74.0685 229.262 71.1198 230.329C67.2199 231.74 64.5878 231.933 60.5263 231.094C55.3912 230.034 51.8203 228.508 49.1229 224.019C46.9889 220.468 47.3186 213.569 47.3186 213.569C47.3186 213.569 47.7737 211.807 48.4973 210.948C49.4651 209.8 51.8823 209.119 51.8823 209.119C51.8823 209.119 52.5988 208.083 53.1848 207.538C55.1526 205.708 59.784 205.574 59.784 205.574C59.784 205.574 60.6424 202.274 61.9939 200.66C63.2457 199.165 66.0586 197.758 66.0586 197.758C66.0586 197.758 70.079 194.444 71.9248 191.727C74.1339 188.475 92.8996 176.424 92.8996 176.424L91.8736 170.16C88.2087 171.154 78.6129 175.463 74.9955 176.572C69.319 178.313 59.7271 178.264 54.5402 175.381C49.8278 172.761 44.2497 168.262 41.493 163.634C38.768 159.06 33.8333 142.1 42.5435 139.606L41.2581 131.946C38.3879 128.034 39.6012 121.168 37.5322 117.88C35.4632 114.592 28.7944 107.897 28.7607 100.571C28.7271 93.245 34.9651 103.834 31.7507 96.9904C28.5364 90.1472 33.558 86.0643 34.6809 80.3957Z" fill="#F9EED0"/>
<path d="M59.1025 61.8867C57.4972 62.5502 55.8582 63.5469 54.3415 64.5177C52.7627 65.5284 51.3326 66.4987 49.9242 67.3076C48.5068 68.1216 47.3738 68.6113 46.4913 68.756C43.4237 69.2587 41.6114 70.664 40.9512 72.5898C40.6723 73.4037 40.6637 74.1534 40.7195 74.6971C40.3099 75.3489 40.0069 75.5576 39.864 75.6333C39.6609 75.7408 39.4313 75.7836 38.7401 75.7939C38.1578 75.8027 36.993 75.77 35.8347 76.2762C34.6582 76.7905 33.7154 77.7265 32.9305 79.096L32.776 79.3762L32.6247 79.6593L32.562 79.9746C32.3293 81.1491 31.8847 82.2904 31.3266 83.532C30.8024 84.6981 30.0972 86.1135 29.573 87.4764C28.6384 89.9068 28.0821 92.6321 29.007 95.8273C27.9234 96.1585 27.3011 97.0113 26.9915 97.8279C26.6935 98.614 26.5961 99.5569 26.6008 100.58C26.6206 104.863 28.5644 108.795 30.5661 111.907C31.5803 113.484 32.6534 114.915 33.5746 116.125C34.5311 117.382 35.2526 118.312 35.7039 119.029C36.007 119.511 36.2575 120.243 36.4617 121.317C36.6657 122.389 36.7857 123.568 36.9498 124.935C37.2363 127.322 37.6446 130.354 39.2065 132.771L40.1312 138.281C38.2183 139.354 36.9884 141.08 36.2871 143.042C35.4163 145.476 35.3224 148.332 35.5792 151.042C36.0912 156.444 38.0914 162.143 39.637 164.738C42.662 169.816 48.5976 174.548 53.491 177.268C56.5053 178.944 60.5856 179.707 64.4972 179.869C68.4394 180.031 72.5091 179.594 75.6309 178.637C77.5561 178.046 80.984 176.639 84.23 175.325C86.4029 174.445 88.4917 173.608 90.1505 173.002L90.5402 175.38C90.0589 175.693 89.4486 176.091 88.7439 176.555C86.9425 177.74 84.5146 179.357 82.0148 181.077C79.5191 182.795 76.9315 184.631 74.8187 186.251C73.7636 187.06 72.8053 187.831 72.0282 188.518C71.2938 189.168 70.5787 189.864 70.1379 190.513C69.3536 191.668 68.0309 193.043 66.8149 194.192C66.2232 194.751 65.6855 195.231 65.2965 195.569C65.1081 195.733 64.9549 195.863 64.8489 195.952C64.7692 195.995 64.6719 196.047 64.5602 196.108C64.2495 196.278 63.8204 196.522 63.347 196.819C62.4565 197.377 61.1937 198.251 60.3371 199.273C59.4113 200.379 58.7551 201.903 58.358 202.966C58.2828 203.167 58.2163 203.362 58.1534 203.545C57.757 203.593 57.3048 203.657 56.8247 203.747C55.3797 204.017 53.1832 204.589 51.7129 205.956C51.2831 206.356 50.868 206.87 50.6026 207.214C50.5839 207.238 50.5667 207.263 50.5487 207.287C50.3032 207.375 50.0088 207.485 49.6938 207.621C48.9284 207.952 47.6745 208.572 46.8448 209.557C46.2291 210.287 45.8297 211.242 45.612 211.826C45.4904 212.152 45.3968 212.444 45.3331 212.655C45.301 212.761 45.2754 212.849 45.2577 212.913C45.2489 212.944 45.2424 212.971 45.2372 212.99C45.2346 213 45.2321 213.008 45.2304 213.014C45.2296 213.017 45.2293 213.021 45.2287 213.023L45.227 213.027C45.2307 213.028 45.3087 213.049 46.8806 213.456L45.2264 213.028L45.1715 213.243L45.1607 213.464L47.3188 213.569C45.2647 213.47 45.1655 213.464 45.1607 213.464L45.1605 213.467L45.1603 213.469C45.1602 213.471 45.1607 213.473 45.1605 213.475C45.1603 213.48 45.1596 213.488 45.1593 213.496C45.1586 213.513 45.1577 213.537 45.1567 213.566C45.1545 213.626 45.1517 213.711 45.149 213.818C45.1437 214.031 45.1393 214.336 45.1406 214.709C45.1431 215.454 45.1698 216.488 45.2681 217.644C45.4561 219.856 45.9316 222.901 47.2717 225.131C48.7979 227.67 50.6243 229.444 52.8349 230.714C55.0019 231.959 57.4419 232.662 60.091 233.209C62.2471 233.654 64.1296 233.848 66.0418 233.709C67.9536 233.57 69.7887 233.108 71.8573 232.359C75.0386 231.208 77.0053 230.124 79.4822 227.626C80.3977 226.702 81.2941 225.432 81.9177 224.484C82.2325 224.005 82.4983 223.574 82.6894 223.259L83.8318 222.658C83.2808 223.933 82.8029 225.327 82.5548 226.737C82.2305 228.58 82.2619 230.665 83.2767 232.536C84.8517 235.438 87.0611 236.528 88.9405 237.873C91.8621 239.964 93.9201 241.337 97.7689 242.223C101.019 242.972 104.134 243.259 107.138 242.713C110.178 242.16 112.967 240.777 115.586 238.401C116.475 237.594 117.363 236.473 117.981 235.641C118.302 235.209 118.574 234.821 118.766 234.541C118.82 234.463 118.867 234.392 118.908 234.331L135.727 219.613C135.809 219.603 135.897 219.596 135.991 219.584C136.593 219.51 137.426 219.387 138.349 219.19C140.085 218.82 142.558 218.109 144.248 216.673C146.022 215.165 147.119 212.699 147.75 210.948C148.019 210.202 148.229 209.508 148.385 208.944L148.986 208.833C149.121 208.909 149.269 208.991 149.428 209.071C150.033 209.376 151.236 209.918 152.497 209.79C153.619 209.677 154.349 209.34 155.15 208.801C156.021 208.216 156.624 207.293 156.934 206.771C156.979 206.694 157.02 206.617 157.061 206.545C157.512 206.387 158.144 206.15 158.667 205.881C160.613 204.883 162.172 202.896 163.143 201.46C163.553 200.856 163.899 200.284 164.169 199.815L164.714 199.824C164.9 200.007 165.118 200.218 165.36 200.44C166.078 201.098 167.139 201.999 168.191 202.565C170.417 203.764 173.369 203.888 175.433 203.819C176.407 203.786 177.287 203.704 177.962 203.625C178.959 204.633 180.349 205.115 181.533 205.337C183.325 205.673 185.415 205.584 187.378 205.262C188.491 205.08 189.706 204.603 190.536 204.241C190.573 204.225 190.609 204.207 190.644 204.192L192.21 205.71C192.225 205.753 192.239 205.797 192.256 205.843C192.381 206.194 192.571 206.701 192.776 207.125C193.819 209.274 196.037 210.921 197.631 211.926C198.483 212.463 199.277 212.891 199.858 213.184C200.15 213.331 200.392 213.446 200.564 213.526C200.649 213.566 200.717 213.597 200.766 213.619C200.791 213.63 200.811 213.639 200.825 213.645L200.849 213.656L200.851 213.656L200.853 213.657L201.71 211.676L200.933 213.69L200.936 213.691C200.937 213.691 200.939 213.692 200.942 213.693C200.946 213.694 200.952 213.697 200.959 213.7C200.973 213.705 200.993 213.712 201.017 213.721C201.066 213.74 201.135 213.766 201.221 213.797C201.39 213.858 201.627 213.941 201.898 214.029C202.408 214.194 203.169 214.42 203.859 214.516C205.881 214.796 208.146 214.482 210.17 213.827C212.188 213.174 214.2 212.106 215.621 210.665C216.525 209.748 217.315 208.819 217.913 207.72C218.524 206.599 218.88 205.402 219.059 204C219.292 202.17 218.917 200.873 218.735 199.711C218.052 195.353 217.314 192.375 214.464 188.577L215.376 187.421C215.803 187.467 216.314 187.508 216.78 187.493C218.707 187.434 220.671 186.449 221.932 185.709C222.163 185.574 222.382 185.437 222.588 185.307C222.935 185.696 223.338 186.14 223.782 186.609C225.211 188.115 227.183 190.028 229.077 191.244C229.783 191.697 230.45 192.214 231.192 192.784C231.899 193.328 232.698 193.94 233.535 194.438C235.307 195.49 237.513 196.174 240.111 195.049C240.67 194.807 241.229 194.445 241.633 194.163C242.019 194.256 242.516 194.349 243.007 194.347C244.93 194.34 246.173 193.363 247.009 192.337C247.392 191.868 247.72 191.354 247.983 190.94C248.267 190.492 248.498 190.125 248.757 189.779C249.954 188.185 250.962 186.605 251.585 184.834C252.222 183.026 252.42 181.133 252.169 178.952C251.769 175.482 250.377 173.581 248.675 171.232C247.715 169.907 246.277 168.56 245.179 167.608C244.612 167.116 244.099 166.699 243.728 166.404C243.705 166.386 243.682 166.368 243.66 166.35C243.571 166.098 243.456 165.793 243.315 165.465C242.984 164.7 242.361 163.436 241.358 162.608C241.051 162.354 240.695 162.131 240.404 161.964C240.28 161.639 240.082 161.226 239.773 160.863L239.593 160.669C239.161 160.241 238.671 160.006 238.308 159.873C238.212 159.837 238.115 159.806 238.02 159.778C237.908 158.987 237.682 157.901 237.188 157.002C236.39 155.549 235.326 154.719 234.211 154.143C233.692 153.875 233.157 153.66 232.69 153.475C232.198 153.28 231.763 153.112 231.306 152.904C229.804 152.222 227.874 151.754 226.435 151.462C225.707 151.315 225.061 151.204 224.59 151.129C224.519 151.052 224.442 150.971 224.36 150.887C223.934 150.451 223.234 149.785 222.472 149.353C220.95 148.49 219.011 148.452 217.814 148.506C217.495 148.52 217.193 148.544 216.918 148.571L211.257 139.652L211.261 139.615C211.288 139.608 211.315 139.602 211.342 139.594C212.196 139.348 213.335 138.994 214.241 138.608C216.897 137.475 220.515 136.629 222.452 132.697C222.998 131.588 223.245 130.227 223.368 129.198C224.515 129.254 226.186 129.229 227.57 128.655C229.347 127.919 230.226 126.987 231.239 125.971C232.184 125.023 232.685 124.366 233.373 123.268C235.024 120.638 236.298 118.235 235.793 114.511C235.578 112.931 234.749 111.302 234.128 110.23C233.97 109.956 233.814 109.7 233.669 109.47C233.944 108.994 234.266 108.405 234.587 107.746C235.369 106.14 236.337 103.734 236.226 101.499C236.125 99.4759 235.525 97.1541 234.704 95.0164C233.88 92.8723 232.769 90.7475 231.533 89.1394C230.215 87.4252 228.055 86.0956 226.472 85.2559C225.639 84.8142 224.879 84.4633 224.326 84.2223C224.32 84.2199 224.315 84.2173 224.309 84.2149C223.27 81.5285 221.907 78.4774 218.718 76.4505C217.557 75.7128 216.038 75.2356 214.975 74.9538C214.502 74.8284 214.072 74.7314 213.732 74.6592C213.545 74.4525 213.305 74.1991 213.055 73.9864C211.803 72.917 210.274 72.7043 209.011 72.7778C207.743 72.8516 206.485 73.2223 205.442 73.6216C204.381 74.028 203.432 74.5078 202.756 74.8793C202.719 74.9 202.682 74.921 202.646 74.9411C202.638 74.9379 202.63 74.9353 202.623 74.9322C202.033 74.6875 201.185 74.3601 200.427 74.1796C198.888 73.8134 197.043 73.8912 195.752 74.0094C195.26 74.0544 194.811 74.1111 194.439 74.1627C194.168 73.9806 193.875 73.8329 193.563 73.7235C192.81 73.4603 192.078 73.4611 191.475 73.5421C190.351 73.6931 189.216 74.2057 188.54 74.4953C186.658 75.301 185.179 76.3268 183.975 77.6858C182.79 79.0236 181.956 80.5897 181.233 82.3433C180.723 83.5789 180.449 85.1245 180.297 86.2297C180.24 86.6467 180.198 87.0293 180.166 87.3481C180.01 87.483 179.833 87.6384 179.641 87.8121C178.907 88.4738 177.925 89.4183 176.949 90.5409C175.979 91.6556 174.969 92.9977 174.221 94.4565C173.48 95.8996 172.914 97.6148 173.054 99.4169C173.204 101.36 174.193 103.39 174.961 104.743C175.357 105.443 175.745 106.046 176.039 106.481C176.018 106.639 175.995 106.812 175.975 106.995C175.89 107.752 175.803 108.854 175.905 109.807C175.98 110.506 176.172 111.221 176.408 111.902C176.277 111.905 176.145 111.912 176.015 111.925C175.2 112.005 174.367 112.295 173.736 112.558C172.689 111.697 171.427 111.597 170.457 111.723C169.389 111.863 168.361 112.299 167.559 112.715C166.729 113.145 165.987 113.636 165.462 114.009C165.447 114.02 165.432 114.031 165.417 114.042C165.347 114.029 165.273 114.015 165.198 114.002C164.54 113.887 163.579 113.747 162.736 113.765C160.102 113.82 157.504 115.411 155.828 116.638C155.172 117.118 154.59 117.595 154.114 118.005C152.797 117.693 151.361 118.221 149.961 119.064C147.08 120.798 144.166 122.341 141.121 123.472C137.365 124.104 133.461 125.213 130.044 127.435C128.843 126.908 127.781 126.437 126.809 125.857C126.828 125.63 126.849 125.383 126.865 125.121C126.933 124.048 126.969 122.573 126.776 121.3C127.523 121.395 128.317 121.457 129.041 121.428C131.61 121.325 134.377 120.062 136.297 119.017C137.302 118.47 138.167 117.931 138.782 117.529C138.962 117.41 139.121 117.301 139.257 117.208C139.336 117.202 139.42 117.198 139.509 117.19C140.048 117.138 140.793 117.042 141.596 116.864C142.389 116.687 143.312 116.415 144.17 115.979C145.013 115.551 145.962 114.88 146.572 113.824C146.798 113.432 146.97 112.988 147.097 112.615C147.502 112.49 147.986 112.335 148.503 112.142C149.863 111.634 151.795 110.778 153.099 109.496C154.157 108.457 154.982 106.958 155.498 105.901C155.655 105.579 155.792 105.274 155.911 105.004C156.266 104.923 156.675 104.817 157.103 104.678C157.747 104.468 158.503 104.164 159.201 103.723C159.884 103.292 160.667 102.63 161.128 101.642C161.719 100.377 161.612 98.8927 161.51 98.0739C161.485 97.8746 161.456 97.6849 161.426 97.5104C161.49 97.4286 161.558 97.343 161.627 97.2533C162.09 96.6488 162.719 95.78 163.14 94.9701C164.089 93.1465 165.302 91.1825 164.82 88.1863C164.687 87.3627 164.343 86.5009 164.103 85.9545C163.973 85.6572 163.849 85.4 163.758 85.2164C163.712 85.1241 163.674 85.0483 163.646 84.9945C163.633 84.9677 163.621 84.946 163.613 84.9301C163.608 84.9223 163.605 84.9161 163.602 84.9111C163.601 84.9086 163.6 84.9056 163.599 84.9038L163.598 84.9023L163.597 84.9005L163.358 84.4534L163 84.1975C164.012 82.047 164.463 79.9434 164.319 77.7281C164.141 74.982 163.065 72.2947 161.497 69.3931C160.777 68.0597 160.191 67.0282 158.791 65.8217C156.756 64.0688 154.928 62.8308 152.868 62.1748C150.788 61.5123 148.691 61.5133 146.246 61.8344C144.848 62.0181 143.783 61.8871 142.317 61.8125C140.871 61.7388 139.235 61.7505 137.277 62.4645C136.342 62.8053 135.304 63.3621 134.567 63.7844C134.184 64.0042 133.851 64.2059 133.614 64.3523C133.572 64.3784 133.532 64.4029 133.496 64.4255C133.415 64.4498 133.319 64.4794 133.211 64.5127C132.854 64.6225 132.358 64.7801 131.798 64.9723C130.71 65.3457 129.259 65.8895 128.132 66.5018C127.176 67.0215 126.603 67.3693 125.694 68.0332C125.129 68.4458 124.721 68.8096 124.361 69.1412C124.001 69.4736 123.731 69.7318 123.344 70.0501C122.645 70.6235 122.067 71.2102 121.575 71.7259C121.056 72.2712 120.69 72.6748 120.288 73.0517C119.578 73.718 118.983 74.0771 118.062 74.1816C117.808 74.2104 117.616 74.1791 117.101 74.0589C116.591 73.9396 115.751 73.7286 114.687 73.8394C112.537 74.0637 111.288 74.7349 109.742 75.6805C108.041 76.7212 107.063 77.9503 106.286 79.1634C105.461 80.4509 105.08 81.2932 104.194 82.4301C103.892 82.8169 103.54 83.2742 103.2 83.7153C102.979 83.5361 102.742 83.3475 102.492 83.1538C101.092 82.0668 99.1458 80.6878 97.3282 79.9154C94.5299 78.7265 92.0902 78.8641 90.0445 79.0107C87.9745 79.1592 86.3639 79.3018 84.456 78.6905C83.957 78.5306 83.2954 78.2815 82.7304 78.0591C82.454 77.9503 82.2113 77.8516 82.0382 77.781C81.952 77.7458 81.8831 77.718 81.8365 77.6988C81.8255 77.6942 81.816 77.6893 81.8076 77.6858C81.8741 76.5991 81.9134 75.2452 81.8436 73.7974C81.7598 72.061 81.5196 70.1123 80.9486 68.3019C80.3823 66.5067 79.433 64.6642 77.8054 63.3733C75.3793 61.4493 72.7043 61.3725 70.4907 61.4545C68.1305 61.542 66.3292 61.7734 64.387 61.258C62.5415 60.7682 60.6798 61.2349 59.1025 61.8867ZM200.853 213.657L200.933 213.69L201.71 211.676L200.853 213.657ZM143.233 110.412L143.227 110.439C143.222 110.463 143.213 110.502 143.201 110.551C143.177 110.651 143.14 110.79 143.094 110.945C142.989 111.301 142.886 111.563 142.827 111.665C142.792 111.725 142.646 111.907 142.21 112.129C141.789 112.343 141.246 112.517 140.655 112.649C140.075 112.778 139.515 112.85 139.096 112.89C138.889 112.91 138.723 112.921 138.612 112.927C138.556 112.93 138.515 112.932 138.49 112.933C138.479 112.934 138.471 112.934 138.467 112.934L137.79 112.95L137.243 113.348C137.242 113.349 137.24 113.352 137.236 113.354C137.229 113.359 137.216 113.369 137.199 113.381C137.165 113.405 137.11 113.443 137.038 113.493C136.895 113.593 136.682 113.739 136.412 113.916C135.869 114.272 135.106 114.747 134.229 115.224C132.385 116.227 130.369 117.052 128.865 117.113C128.102 117.143 127.008 116.997 125.996 116.806C125.513 116.714 125.088 116.62 124.785 116.549C124.634 116.514 124.514 116.485 124.433 116.464C124.393 116.454 124.362 116.446 124.343 116.441C124.334 116.439 124.327 116.437 124.323 116.436L124.321 116.435L120.331 115.382L121.739 119.259L121.744 119.272C121.748 119.282 121.754 119.299 121.762 119.321C121.778 119.366 121.801 119.434 121.831 119.519C121.889 119.689 121.97 119.928 122.056 120.201C122.237 120.772 122.411 121.393 122.489 121.833C122.627 122.619 122.621 123.771 122.553 124.846C122.52 125.358 122.477 125.812 122.442 126.136C122.424 126.297 122.409 126.425 122.398 126.511C122.393 126.554 122.389 126.587 122.386 126.608C122.385 126.618 122.383 126.625 122.383 126.629C122.382 126.63 122.383 126.631 122.383 126.632L122.208 127.898L123.234 128.661C125.235 130.148 127.566 131.05 129.399 131.871L130.556 132.39L131.573 131.633C134.499 129.456 138.14 128.335 142.043 127.696L142.244 127.664L142.436 127.594C145.905 126.326 149.137 124.604 152.193 122.764C152.251 122.729 152.308 122.699 152.361 122.669L152.726 125.469L155.836 122.289C155.837 122.288 155.839 122.287 155.841 122.285C155.846 122.279 155.856 122.27 155.87 122.256C155.898 122.228 155.943 122.184 156.003 122.126C156.122 122.011 156.301 121.841 156.529 121.635C156.988 121.221 157.633 120.671 158.381 120.124C159.995 118.943 161.644 118.107 162.83 118.082C163.231 118.074 163.848 118.149 164.457 118.256C164.742 118.306 164.993 118.357 165.173 118.395C165.262 118.414 165.332 118.429 165.378 118.44C165.401 118.445 165.419 118.448 165.429 118.451C165.434 118.452 165.438 118.454 165.44 118.454L166.486 118.703L167.313 118.021C167.313 118.021 167.314 118.02 167.315 118.019L167.317 118.018C167.322 118.014 167.331 118.006 167.345 117.996C167.371 117.974 167.415 117.94 167.472 117.896C167.586 117.808 167.756 117.679 167.967 117.53C168.394 117.226 168.96 116.856 169.551 116.549C170.171 116.228 170.679 116.05 171.018 116.005C171.033 116.004 171.047 116.004 171.06 116.002C171.083 116.035 171.108 116.07 171.131 116.106C171.173 116.17 171.209 116.229 171.235 116.271C171.247 116.292 171.256 116.308 171.262 116.317C171.263 116.32 171.265 116.322 171.266 116.324L172.348 118.204L174.223 117.115C174.224 117.115 174.227 117.114 174.23 117.113C174.238 117.108 174.252 117.1 174.272 117.089C174.311 117.066 174.373 117.033 174.453 116.991C174.613 116.906 174.839 116.791 175.096 116.674C175.673 116.412 176.173 116.249 176.441 116.223C176.787 116.188 177.461 116.318 178.265 116.601C178.622 116.727 178.937 116.859 179.163 116.959C179.275 117.009 179.363 117.05 179.42 117.077C179.448 117.09 179.468 117.1 179.48 117.106C179.484 117.108 179.488 117.109 179.49 117.11L179.491 117.111L179.492 117.112L186.78 120.784L182.26 113.988L182.259 113.986C182.256 113.983 182.252 113.977 182.246 113.968C182.234 113.949 182.215 113.919 182.19 113.879C182.138 113.799 182.063 113.677 181.97 113.524C181.782 113.214 181.531 112.779 181.273 112.28C180.722 111.211 180.283 110.111 180.202 109.349C180.152 108.891 180.19 108.18 180.269 107.477C180.306 107.148 180.347 106.858 180.379 106.65C180.395 106.547 180.409 106.466 180.418 106.412C180.423 106.385 180.426 106.365 180.428 106.353C180.429 106.347 180.43 106.342 180.43 106.34L180.599 105.411L180.032 104.656L180.031 104.654C180.028 104.65 180.021 104.642 180.013 104.631C179.997 104.608 179.971 104.573 179.937 104.525C179.868 104.429 179.766 104.285 179.642 104.101C179.392 103.732 179.057 103.212 178.719 102.615C177.994 101.338 177.434 100.017 177.362 99.087C177.307 98.3785 177.524 97.4858 178.066 96.4295C178.6 95.3885 179.373 94.3384 180.211 93.3757C181.041 92.4209 181.891 91.6015 182.537 91.019C182.858 90.7294 183.125 90.5024 183.308 90.3499C183.4 90.2737 183.47 90.2158 183.516 90.179C183.538 90.1608 183.555 90.1475 183.564 90.1396L183.574 90.1327L184.344 89.531L184.4 88.5572L184.4 88.5551L184.4 88.5529C184.4 88.549 184.401 88.5421 184.402 88.5324C184.403 88.5126 184.405 88.481 184.408 88.4392C184.414 88.3553 184.423 88.2295 184.437 88.0718C184.465 87.7552 184.511 87.314 184.579 86.8188C184.722 85.7756 184.94 84.689 185.228 83.9905C185.858 82.464 186.471 81.3857 187.212 80.5501C187.933 79.7358 188.859 79.0583 190.243 78.4654C190.647 78.2927 190.985 78.1466 191.317 78.0264C191.647 77.9064 191.885 77.8445 192.053 77.8219L192.055 77.8212L192.769 78.8453L194.147 78.5795L194.15 78.5785C194.154 78.5777 194.162 78.5768 194.174 78.5747C194.196 78.5706 194.232 78.5635 194.28 78.5552C194.376 78.5384 194.52 78.5147 194.701 78.4871C195.066 78.4314 195.575 78.3625 196.149 78.3099C197.366 78.1986 198.616 78.1866 199.429 78.3801C199.834 78.4764 200.417 78.6917 200.968 78.9203C201.228 79.0282 201.456 79.1289 201.618 79.2021C201.699 79.2386 201.763 79.268 201.805 79.2877C201.826 79.2975 201.842 79.3049 201.852 79.3095C201.857 79.3117 201.861 79.3132 201.862 79.314L202.956 79.8345L203.969 79.1748C203.971 79.1741 203.973 79.1731 203.975 79.1714C203.983 79.1668 203.996 79.1588 204.013 79.1476C204.05 79.1249 204.107 79.0895 204.183 79.0436C204.335 78.9514 204.56 78.8183 204.841 78.664C205.408 78.3523 206.172 77.9686 206.991 77.6547C207.829 77.3338 208.619 77.1274 209.264 77.0899C209.914 77.0521 210.163 77.1946 210.25 77.269C210.325 77.3332 210.471 77.4834 210.64 77.6768C210.714 77.7619 210.778 77.8393 210.823 77.8945L210.886 77.971C210.886 77.971 210.885 77.9717 210.886 77.971L210.886 77.9728L211.404 78.6256L212.226 78.7633C212.23 78.7639 212.237 78.7655 212.246 78.7671C212.265 78.7703 212.294 78.7748 212.334 78.782C212.413 78.7966 212.534 78.8199 212.684 78.8506C212.985 78.9124 213.405 79.0047 213.87 79.1281C214.864 79.3915 215.834 79.7345 216.4 80.0942C218.562 81.4682 219.446 83.5781 220.605 86.6211L220.951 87.5291L221.859 87.8734C221.86 87.8738 221.862 87.874 221.864 87.8747C221.87 87.8771 221.882 87.8812 221.897 87.8872C221.928 87.8994 221.977 87.9191 222.041 87.9452C222.171 87.9974 222.362 88.0764 222.6 88.1801C223.079 88.3886 223.736 88.6923 224.448 89.07C225.955 89.8695 227.393 90.8407 228.107 91.7688C229.024 92.9616 229.951 94.692 230.67 96.5627C231.391 98.4403 231.84 100.294 231.91 101.711C231.963 102.774 231.445 104.327 230.701 105.856C230.354 106.569 229.999 107.192 229.732 107.637C229.599 107.859 229.489 108.034 229.414 108.151C229.377 108.209 229.348 108.253 229.33 108.28C229.321 108.293 229.315 108.303 229.311 108.308C229.31 108.31 229.308 108.312 229.308 108.312L228.447 109.583L229.366 110.814C229.368 110.817 229.373 110.824 229.379 110.832C229.392 110.849 229.412 110.876 229.438 110.912C229.491 110.986 229.569 111.098 229.665 111.241C229.86 111.527 230.121 111.929 230.39 112.392C230.969 113.392 231.418 114.401 231.511 115.089C231.806 117.259 231.225 118.56 229.712 120.972C229.171 121.834 228.866 122.231 228.177 122.921C227.148 123.952 226.807 124.295 225.913 124.665C225.424 124.868 224.502 124.941 223.442 124.879C222.962 124.851 222.53 124.801 222.219 124.758C222.065 124.736 221.943 124.716 221.863 124.703C221.823 124.696 221.794 124.691 221.776 124.688C221.768 124.686 221.762 124.685 221.759 124.685L219.173 124.19L219.193 126.82C219.193 126.823 219.193 126.829 219.193 126.837C219.193 126.854 219.194 126.882 219.193 126.92C219.192 126.995 219.19 127.11 219.185 127.254C219.175 127.545 219.154 127.949 219.109 128.399C219.011 129.374 218.826 130.279 218.575 130.788C217.535 132.898 216.091 133.123 212.543 134.635C211.893 134.912 210.966 135.206 210.143 135.444C209.743 135.559 209.389 135.655 209.136 135.722C209.009 135.755 208.909 135.78 208.841 135.797C208.806 135.806 208.78 135.813 208.763 135.817C208.755 135.819 208.749 135.821 208.745 135.822L208.741 135.822L207.263 136.187L206.808 140.703L214.812 153.312L216.27 153.018L216.27 153.017C216.273 153.016 216.278 153.015 216.285 153.014C216.303 153.011 216.333 153.005 216.375 152.998C216.458 152.983 216.586 152.962 216.748 152.94C217.073 152.894 217.52 152.842 218.011 152.82C219.125 152.77 219.97 152.897 220.342 153.108C220.544 153.223 220.891 153.516 221.27 153.904C221.439 154.077 221.583 154.236 221.685 154.352C221.736 154.41 221.775 154.456 221.8 154.485C221.812 154.5 221.821 154.51 221.826 154.516C221.827 154.517 221.828 154.517 221.829 154.518L221.828 154.519L222.372 155.182L223.222 155.292C223.223 155.293 223.226 155.293 223.229 155.293C223.235 155.294 223.246 155.295 223.26 155.297C223.288 155.301 223.332 155.308 223.389 155.316C223.504 155.332 223.674 155.357 223.887 155.391C224.314 155.459 224.91 155.56 225.579 155.696C226.963 155.976 228.489 156.367 229.519 156.835C230.098 157.098 230.654 157.313 231.101 157.49C231.572 157.677 231.923 157.822 232.229 157.98C232.764 158.256 233.106 158.54 233.401 159.077C233.54 159.331 233.685 159.894 233.771 160.609C233.809 160.926 233.829 161.213 233.84 161.42C233.845 161.523 233.848 161.604 233.849 161.656C233.85 161.681 233.85 161.7 233.85 161.711C233.85 161.714 233.851 161.716 233.851 161.718L233.864 164.002L236.145 163.86L236.144 163.861C236.145 163.861 236.146 163.861 236.147 163.861C236.167 163.861 236.203 163.86 236.249 163.86C236.311 163.861 236.383 163.863 236.459 163.869L236.63 164.926L237.676 165.407C237.679 165.409 237.686 165.412 237.695 165.416C237.713 165.424 237.741 165.439 237.778 165.457C237.853 165.494 237.958 165.546 238.074 165.608C238.341 165.752 238.534 165.877 238.605 165.936C238.76 166.064 239.052 166.49 239.348 167.174C239.475 167.468 239.574 167.742 239.641 167.942C239.675 168.041 239.699 168.12 239.715 168.17C239.722 168.195 239.728 168.213 239.73 168.223L239.732 168.226L239.928 168.936L240.517 169.378C240.518 169.378 240.52 169.379 240.523 169.381C240.528 169.385 240.536 169.391 240.547 169.4C240.569 169.417 240.604 169.443 240.65 169.478C240.741 169.548 240.875 169.652 241.041 169.785C241.376 170.05 241.839 170.427 242.348 170.869C243.403 171.783 244.522 172.861 245.176 173.763C246.857 176.083 247.616 177.187 247.876 179.443C248.06 181.045 247.906 182.271 247.509 183.398C247.099 184.562 246.391 185.732 245.3 187.186C244.918 187.695 244.591 188.218 244.333 188.624C244.055 189.063 243.855 189.366 243.658 189.609C243.335 190.005 243.204 190.027 242.988 190.028C242.997 190.028 242.944 190.028 242.816 190.004C242.698 189.981 242.564 189.948 242.428 189.909C242.294 189.871 242.174 189.832 242.089 189.802C242.048 189.788 242.016 189.777 241.996 189.77C241.987 189.766 241.981 189.763 241.978 189.762L240.804 189.314L239.833 190.115C239.832 190.116 239.831 190.116 239.83 190.118C239.825 190.122 239.816 190.129 239.803 190.139C239.779 190.159 239.739 190.19 239.689 190.229C239.589 190.308 239.446 190.417 239.283 190.534C238.92 190.795 238.586 191.002 238.39 191.087C237.507 191.469 236.805 191.357 235.742 190.725C235.162 190.38 234.562 189.928 233.826 189.362C233.123 188.822 232.302 188.183 231.411 187.611C229.98 186.693 228.305 185.102 226.918 183.64C226.241 182.926 225.663 182.276 225.255 181.805C225.052 181.569 224.891 181.379 224.783 181.25C224.728 181.185 224.688 181.135 224.661 181.103C224.647 181.087 224.638 181.075 224.631 181.067C224.629 181.064 224.626 181.062 224.625 181.06L224.624 181.058L223.273 179.401L221.601 180.733L221.6 180.734C221.597 180.737 221.59 180.742 221.58 180.749C221.56 180.765 221.528 180.79 221.485 180.823C221.398 180.889 221.267 180.986 221.099 181.105C220.762 181.345 220.288 181.666 219.743 181.985C218.558 182.681 217.404 183.153 216.643 183.176C216.384 183.185 215.962 183.149 215.528 183.091C215.328 183.065 215.151 183.037 215.025 183.016C214.963 183.006 214.913 182.998 214.881 182.992C214.865 182.99 214.852 182.987 214.845 182.986C214.842 182.986 214.84 182.985 214.839 182.985L213.557 182.749L208.895 188.66L210.06 190.009L210.062 190.009C210.062 190.01 210.064 190.013 210.066 190.015C210.07 190.02 210.076 190.027 210.084 190.036C210.101 190.056 210.126 190.085 210.157 190.121C210.22 190.194 210.307 190.298 210.406 190.416C210.608 190.658 210.833 190.934 210.987 191.139C213.247 194.14 213.831 196.323 214.466 200.376C214.73 202.066 214.903 202.419 214.772 203.453C214.649 204.419 214.428 205.083 214.117 205.654C213.794 206.248 213.318 206.847 212.543 207.632C211.75 208.436 210.418 209.207 208.836 209.719C207.261 210.228 205.668 210.407 204.45 210.238C204.157 210.197 203.696 210.073 203.229 209.922C203.013 209.852 202.824 209.785 202.689 209.736C202.621 209.712 202.569 209.692 202.534 209.679L202.531 209.678C202.5 209.664 202.449 209.641 202.382 209.61C202.248 209.548 202.049 209.453 201.804 209.33C201.311 209.081 200.642 208.72 199.936 208.275C198.414 207.315 197.136 206.215 196.664 205.243C196.566 205.042 196.441 204.719 196.325 204.395C196.271 204.244 196.225 204.11 196.193 204.014C196.178 203.966 196.166 203.928 196.158 203.903C196.153 203.891 196.15 203.881 196.148 203.875C196.147 203.873 196.147 203.87 196.147 203.87L195.982 203.351L191.441 198.952L190.052 199.689C190.05 199.691 190.044 199.694 190.037 199.697C190.024 199.704 190.002 199.716 189.973 199.731C189.914 199.761 189.826 199.806 189.713 199.861C189.487 199.972 189.17 200.124 188.807 200.283C188.033 200.62 187.228 200.91 186.675 201.001C185.006 201.274 183.458 201.304 182.327 201.092C181.765 200.987 181.401 200.84 181.193 200.71C181.094 200.649 181.046 200.601 181.026 200.578C181.01 200.559 181.007 200.552 181.006 200.55L180.375 198.848L178.589 199.175C178.588 199.176 178.586 199.176 178.583 199.177C178.575 199.178 178.561 199.181 178.542 199.184C178.503 199.19 178.442 199.201 178.361 199.214C178.199 199.239 177.958 199.274 177.657 199.312C177.051 199.388 176.213 199.472 175.285 199.503C173.307 199.569 171.375 199.376 170.238 198.764C169.685 198.466 168.953 197.875 168.28 197.258C167.962 196.967 167.689 196.699 167.496 196.504C167.4 196.408 167.324 196.33 167.274 196.279C167.25 196.253 167.231 196.233 167.22 196.221C167.214 196.215 167.21 196.211 167.208 196.209C167.207 196.207 167.206 196.206 167.206 196.206L166.58 195.537L161.547 195.453L160.946 196.692L160.947 196.69C160.946 196.691 160.945 196.692 160.944 196.694C160.942 196.7 160.936 196.71 160.929 196.724C160.915 196.752 160.893 196.797 160.863 196.856C160.801 196.975 160.708 197.151 160.587 197.369C160.343 197.808 159.992 198.405 159.563 199.039C158.642 200.401 157.596 201.576 156.693 202.039C156.434 202.172 156.016 202.335 155.598 202.481C155.402 202.55 155.228 202.608 155.103 202.647C155.041 202.667 154.991 202.683 154.959 202.693C154.943 202.698 154.931 202.701 154.923 202.703C154.92 202.704 154.917 202.706 154.916 202.706L153.954 202.995L153.557 203.915L153.544 203.945C153.53 203.975 153.508 204.023 153.477 204.084C153.416 204.209 153.327 204.381 153.219 204.563C153.109 204.748 152.995 204.918 152.886 205.053C152.768 205.199 152.712 205.234 152.737 205.218C152.508 205.372 152.413 205.416 152.365 205.434C152.333 205.447 152.267 205.468 152.096 205.488C152.073 205.484 152.024 205.476 151.943 205.453C151.782 205.405 151.585 205.323 151.375 205.217C151.17 205.113 150.986 205.004 150.853 204.919C150.787 204.878 150.737 204.844 150.707 204.823C150.692 204.813 150.682 204.807 150.677 204.803C150.676 204.802 150.675 204.802 150.674 204.801L149.93 204.265L144.791 205.219L144.503 206.647C144.503 206.648 144.502 206.65 144.502 206.652C144.5 206.659 144.498 206.671 144.494 206.687C144.487 206.721 144.475 206.774 144.459 206.845C144.427 206.986 144.378 207.197 144.31 207.459C144.172 207.984 143.964 208.705 143.684 209.484C143.083 211.152 142.294 212.663 141.447 213.383C140.636 214.072 139.096 214.614 137.446 214.966C136.675 215.13 135.97 215.235 135.458 215.298C135.203 215.329 134.999 215.351 134.862 215.363C134.794 215.37 134.742 215.374 134.709 215.377C134.694 215.378 134.682 215.378 134.676 215.379C134.674 215.379 134.673 215.379 134.672 215.379L133.946 215.43L115.846 231.268L115.622 231.465L115.459 231.715C115.459 231.716 115.458 231.716 115.457 231.718C115.455 231.721 115.451 231.727 115.446 231.735C115.435 231.751 115.419 231.776 115.397 231.809C115.353 231.875 115.287 231.974 115.202 232.097C115.033 232.344 114.792 232.686 114.51 233.066C113.922 233.859 113.24 234.693 112.68 235.202C110.61 237.08 108.546 238.067 106.362 238.464C104.141 238.868 101.66 238.687 98.7371 238.014C95.7381 237.323 94.2438 236.359 91.4551 234.362C89.0039 232.608 88.0376 232.254 87.0744 230.479C86.6987 229.786 86.5796 228.804 86.811 227.488C87.0404 226.184 87.5798 224.762 88.2503 223.394C88.9143 222.039 89.6665 220.819 90.2577 219.932C90.5515 219.491 90.8015 219.138 90.9759 218.898C91.0631 218.779 91.1314 218.687 91.176 218.628C91.1981 218.599 91.2149 218.578 91.2249 218.565C91.23 218.558 91.2334 218.553 91.2351 218.55L91.2357 218.549C91.2353 218.549 91.2345 218.548 91.2328 218.547L88.5237 215.312L79.5767 220.015L79.2652 220.561C79.2649 220.561 79.2636 220.563 79.2626 220.565C79.2603 220.569 79.2558 220.576 79.2505 220.585C79.2398 220.603 79.2237 220.633 79.2015 220.67C79.157 220.746 79.0903 220.859 79.0052 221C78.8344 221.283 78.5916 221.675 78.3051 222.111C77.7095 223.017 77.0076 223.984 76.4116 224.585C74.4765 226.538 73.0992 227.316 70.3835 228.299C68.5522 228.961 67.1204 229.301 65.7259 229.402C64.3319 229.503 62.8679 229.373 60.9629 228.98C58.477 228.467 56.5633 227.876 54.9868 226.97C53.4541 226.09 52.1462 224.857 50.9752 222.909C50.1813 221.588 49.7541 219.407 49.5735 217.282C49.4875 216.27 49.4637 215.357 49.4614 214.697C49.4602 214.368 49.4647 214.105 49.4691 213.927C49.4693 213.921 49.47 213.914 49.4702 213.908L49.4704 213.906C49.5145 213.76 49.5793 213.557 49.6618 213.336C49.8525 212.825 50.0432 212.468 50.151 212.341C50.2891 212.177 50.728 211.882 51.413 211.585C51.7084 211.457 51.9834 211.357 52.1843 211.289C52.2833 211.256 52.3616 211.231 52.4121 211.215C52.4372 211.207 52.4556 211.202 52.4656 211.199L52.4719 211.197L53.2187 210.987L53.6608 210.348C53.6614 210.347 53.6622 210.346 53.6634 210.344C53.6669 210.339 53.6727 210.33 53.6809 210.318C53.6974 210.295 53.723 210.259 53.7559 210.214C53.8222 210.122 53.9164 209.994 54.0257 209.852C54.2651 209.542 54.5015 209.264 54.6577 209.119C55.1553 208.656 56.2585 208.247 57.6206 207.992C58.2372 207.877 58.8067 207.811 59.2222 207.774C59.4284 207.756 59.5934 207.745 59.703 207.739C59.7576 207.736 59.7982 207.734 59.823 207.733C59.8353 207.732 59.8437 207.733 59.8481 207.733L61.4677 207.686L61.8759 206.118C61.8767 206.115 61.8784 206.108 61.8809 206.099C61.8859 206.08 61.894 206.05 61.905 206.011C61.9273 205.931 61.9612 205.811 62.0068 205.661C62.0987 205.359 62.2348 204.94 62.4071 204.479C62.7771 203.489 63.2253 202.555 63.651 202.047C64.0461 201.575 64.8163 200.998 65.6452 200.478C66.0314 200.236 66.3843 200.035 66.6402 199.894C66.7675 199.825 66.8695 199.771 66.9371 199.736C66.9707 199.718 66.9958 199.705 67.0112 199.697C67.0189 199.693 67.0242 199.69 67.027 199.689L67.0275 199.688L67.2456 199.58L67.435 199.424L67.4365 199.423C67.4374 199.422 67.4381 199.421 67.4395 199.419C67.4422 199.417 67.4463 199.415 67.4509 199.411C67.4601 199.403 67.4731 199.392 67.4897 199.378C67.5229 199.351 67.5711 199.311 67.6315 199.26C67.7523 199.158 67.9237 199.01 68.1351 198.826C68.5576 198.458 69.1408 197.939 69.7849 197.33C71.0404 196.143 72.6515 194.503 73.713 192.941C73.8245 192.777 74.1782 192.385 74.8928 191.753C75.5647 191.159 76.4354 190.455 77.4502 189.677C79.4772 188.123 81.9954 186.336 84.4672 184.634C86.9347 182.936 89.3364 181.337 91.1225 180.162C92.0148 179.575 92.7527 179.094 93.2668 178.76C93.5239 178.593 93.7253 178.462 93.8618 178.374C93.9299 178.33 93.9823 178.297 94.0171 178.274C94.0344 178.263 94.0479 178.255 94.0565 178.249C94.0606 178.246 94.0638 178.245 94.0659 178.243L94.0683 178.241L95.2615 177.476L93.6192 167.448L91.3064 168.076C89.317 168.616 85.8537 170.006 82.6047 171.322C79.2324 172.687 76.0532 173.989 74.361 174.508C71.8065 175.291 68.242 175.701 64.6726 175.553C61.0724 175.405 57.7623 174.702 55.5897 173.495C51.0585 170.976 45.838 166.709 43.3496 162.531C42.1701 160.551 40.3405 155.483 39.8813 150.638C39.6527 148.225 39.7879 146.087 40.3563 144.498C40.8933 142.996 41.7664 142.075 43.1407 141.682L44.9941 141.151L43.3043 131.084L43.0002 130.67C41.9507 129.239 41.5635 127.118 41.24 124.423C41.0901 123.174 40.9466 121.775 40.7065 120.513C40.4667 119.252 40.0923 117.894 39.361 116.732C38.7779 115.805 37.8901 114.665 37.0134 113.513C36.1012 112.314 35.1167 110.997 34.201 109.573C32.4194 106.803 31.0535 103.858 30.9315 100.939C31.0517 101.029 31.2524 101.176 31.482 101.295C31.6019 101.357 31.8434 101.473 32.1605 101.534C32.468 101.594 33.1287 101.653 33.7955 101.229C34.4927 100.785 34.7227 100.12 34.7924 99.7448C34.8591 99.3858 34.8265 99.0825 34.8044 98.9285C34.7581 98.6068 34.6565 98.2997 34.5762 98.0771C34.402 97.5948 34.1095 96.932 33.7064 96.0738C32.4253 93.3462 32.75 91.2567 33.6068 89.0288C34.0765 87.8073 34.6359 86.7115 35.2685 85.3042C35.8231 84.0704 36.3791 82.6957 36.7199 81.181C37.1599 80.433 37.4673 80.2771 37.5688 80.2327C37.7768 80.1419 37.9962 80.1252 38.8076 80.1131C39.5097 80.1026 40.6847 80.0879 41.8896 79.4498C43.1172 78.7997 44.091 77.6714 44.9178 76.0449L45.3514 75.1917L45.0323 74.354C45.0285 74.338 45.0218 74.3102 45.0174 74.274C45.005 74.1711 45.0122 74.0716 45.0396 73.9919C45.0565 73.9425 45.1057 73.8156 45.3392 73.6482C45.599 73.4619 46.1413 73.1903 47.1933 73.0179C48.8726 72.7427 50.5603 71.9242 52.0791 71.0519C53.6072 70.1743 55.229 69.0789 56.6737 68.1541C58.1806 67.1894 59.5376 66.3805 60.7555 65.8772C62.0014 65.3623 62.791 65.3017 63.2809 65.4317C66.0305 66.1614 68.7631 65.8397 70.6538 65.7697C72.6909 65.6943 73.9848 65.8551 75.121 66.7562C75.8195 67.3104 76.4034 68.2536 76.8275 69.5981C77.2469 70.9277 77.4535 72.4743 77.5272 74.002C77.6002 75.5178 77.5389 76.9396 77.4572 77.9878C77.4166 78.5094 77.372 78.9325 77.3376 79.2211C77.3205 79.3652 77.3055 79.4755 77.2958 79.5472C77.2909 79.5831 77.2871 79.6096 77.2848 79.6256C77.2837 79.6334 77.2832 79.6392 77.2827 79.642L77.2822 79.6433L76.8215 82.6912L80.7254 81.9058C80.8536 81.9573 80.9959 82.0167 81.149 82.077C81.7304 82.3059 82.5001 82.5983 83.1395 82.8032C85.9679 83.7093 88.4129 83.4576 90.3573 83.3182C92.3261 83.177 93.8618 83.1336 95.6402 83.8893C96.9144 84.4307 98.493 85.5159 99.8434 86.564C100.497 87.0714 101.06 87.5417 101.459 87.8838C101.658 88.0544 101.816 88.1919 101.922 88.2858C101.975 88.3327 102.015 88.3687 102.04 88.3921C102.053 88.4038 102.063 88.4126 102.069 88.4178C102.072 88.4202 102.073 88.4223 102.074 88.4231L103.816 90.0146L105.248 88.1417L105.249 88.1404C105.25 88.1396 105.252 88.1387 105.253 88.1369C105.256 88.1334 105.259 88.1279 105.265 88.121C105.275 88.107 105.291 88.0861 105.311 88.0594C105.352 88.006 105.412 87.9288 105.487 87.8318C105.635 87.6377 105.843 87.3662 106.08 87.0579C106.555 86.44 107.143 85.6767 107.604 85.0854C108.632 83.7658 109.408 82.3034 109.927 81.4941C110.492 80.6107 111.043 79.9504 112 79.3651C113.334 78.5491 113.93 78.2609 115.139 78.1349C115.4 78.1077 115.596 78.1419 116.12 78.2645C116.641 78.3862 117.484 78.5939 118.553 78.4727C120.695 78.2296 122.114 77.2631 123.246 76.2016C123.766 75.7145 124.279 75.1526 124.705 74.7049C125.16 74.2277 125.596 73.7931 126.088 73.3888C126.598 72.97 126.986 72.599 127.293 72.3157C127.601 72.0318 127.871 71.7932 128.244 71.5208C128.97 70.9909 129.376 70.744 130.199 70.2965C130.992 69.8657 132.156 69.4161 133.203 69.0568C133.711 68.8827 134.162 68.7393 134.486 68.6396C134.647 68.5899 134.776 68.5512 134.863 68.5254C134.907 68.5126 134.94 68.5029 134.961 68.4966C134.972 68.4935 134.98 68.4912 134.985 68.4898C134.987 68.4891 134.989 68.4892 134.989 68.489L135.299 68.4004L135.571 68.2251L135.573 68.2235C135.575 68.2218 135.58 68.2192 135.586 68.2152C135.599 68.2069 135.62 68.1937 135.647 68.1765C135.701 68.142 135.783 68.0906 135.887 68.0269C136.094 67.8991 136.385 67.7225 136.719 67.5311C137.417 67.1308 138.191 66.7291 138.761 66.5213C139.93 66.0948 140.899 66.0637 142.1 66.1249C143.282 66.1851 144.909 66.3658 146.812 66.1159C148.952 65.8347 150.333 65.8996 151.559 66.2899C152.805 66.6868 154.111 67.4902 155.97 69.0923C156.759 69.7717 157.043 70.2354 157.696 71.4424C159.158 74.1494 159.889 76.183 160.007 78.0042C160.121 79.7523 159.681 81.5268 158.347 83.7412L157.315 85.4547L159.992 87.3575C160.039 87.456 160.093 87.5653 160.145 87.6839C160.359 88.1733 160.512 88.6164 160.553 88.8694C160.77 90.2198 160.39 90.8914 159.306 92.9754C159.067 93.4345 158.631 94.057 158.195 94.6261C157.988 94.8962 157.799 95.1309 157.663 95.2973C157.595 95.3801 157.54 95.445 157.503 95.4884C157.485 95.5101 157.471 95.5272 157.463 95.5374C157.459 95.542 157.455 95.545 157.454 95.547C157.453 95.548 157.453 95.5493 157.453 95.5495L156.695 96.4316L157.016 97.5486C157.017 97.5494 157.017 97.5503 157.018 97.5513C157.02 97.5603 157.024 97.5775 157.03 97.6018C157.043 97.6508 157.063 97.7284 157.085 97.8275C157.13 98.0285 157.184 98.3047 157.222 98.607C157.261 98.9151 157.277 99.2103 157.264 99.4594C157.251 99.6977 157.216 99.8017 157.212 99.8131C157.231 99.7734 157.191 99.8822 156.889 100.073C156.601 100.254 156.21 100.425 155.761 100.571C155.323 100.714 154.896 100.813 154.573 100.875C154.414 100.906 154.285 100.928 154.201 100.941C154.159 100.947 154.129 100.952 154.111 100.954C154.105 100.955 154.1 100.955 154.097 100.955L152.784 101.114L152.33 102.356L152.329 102.357C152.328 102.36 152.326 102.367 152.322 102.376C152.315 102.395 152.304 102.425 152.288 102.465C152.257 102.546 152.209 102.667 152.147 102.818C152.021 103.123 151.839 103.544 151.614 104.006C151.132 104.994 150.569 105.923 150.068 106.416C149.455 107.018 148.268 107.618 146.988 108.096C146.392 108.318 145.845 108.49 145.449 108.604C145.251 108.662 145.093 108.704 144.987 108.732C144.935 108.745 144.896 108.756 144.871 108.762C144.859 108.765 144.85 108.767 144.845 108.768L144.843 108.769L143.519 109.085L143.233 110.412ZM236.447 163.791L236.448 163.8L236.447 163.798C236.447 163.797 236.447 163.796 236.447 163.794L236.446 163.793L236.447 163.791ZM236.143 163.861C236.142 163.861 236.14 163.861 236.139 163.861C236.137 163.861 236.136 163.862 236.135 163.862C236.133 163.862 236.132 163.862 236.132 163.862C236.132 163.862 236.136 163.861 236.143 163.861Z" fill="black"/>
<path d="M101.466 227.983C97.7103 229.069 98.0408 232.658 100.128 234.151C101.719 235.289 105.115 235.75 107.313 234.641C108.507 234.04 108.895 231.97 107.388 230.231C106.119 228.766 103.183 227.487 101.466 227.983Z" fill="black"/>
<path d="M102.719 222.131C101.482 222.415 101.262 223.371 101.65 224.388C102.038 225.405 103.675 227.403 105.239 226.687C106.803 225.971 106.505 224.873 105.863 223.953C105.22 223.033 103.956 221.848 102.719 222.131Z" fill="black"/>
<path d="M96.2814 222.379C95.044 222.663 94.8248 223.619 95.2126 224.636C95.6003 225.653 97.2377 227.651 98.8016 226.935C100.366 226.219 100.068 225.121 99.4252 224.201C98.7825 223.281 97.5187 222.096 96.2814 222.379Z" fill="black"/>
<path d="M93.8108 226.535C92.5444 226.621 92.1778 227.532 92.4009 228.597C92.6241 229.662 93.9273 231.892 95.584 231.43C97.2408 230.967 97.1193 229.836 96.6292 228.827C96.139 227.817 95.0771 226.449 93.8108 226.535Z" fill="black"/>
<path d="M61.4747 217.913C57.7191 218.998 58.0496 222.588 60.1364 224.081C61.7274 225.219 65.1234 225.679 67.3218 224.571C68.5154 223.969 68.9042 221.9 67.3968 220.16C66.1275 218.695 63.1914 217.417 61.4747 217.913Z" fill="black"/>
<path d="M62.7277 212.061C61.4903 212.345 61.2711 213.301 61.6589 214.318C62.0466 215.335 63.684 217.333 65.2479 216.617C66.8119 215.901 66.5143 214.803 65.8715 213.883C65.2288 212.963 63.965 211.778 62.7277 212.061Z" fill="black"/>
<path d="M56.2902 212.309C55.0528 212.592 54.8336 213.549 55.2214 214.566C55.6091 215.583 57.2465 217.58 58.8104 216.864C60.3744 216.148 60.0768 215.05 59.434 214.13C58.7913 213.21 57.5275 212.025 56.2902 212.309Z" fill="black"/>
<path d="M53.8186 216.465C52.5522 216.551 52.1856 217.462 52.4088 218.527C52.6319 219.592 53.9351 221.822 55.5919 221.36C57.2486 220.897 57.1272 219.766 56.637 218.757C56.1468 217.747 55.0849 216.379 53.8186 216.465Z" fill="black"/>
<path fill-rule="evenodd" clip-rule="evenodd" d="M60.8508 150.514C54.2087 142.736 69.4132 139.571 73.8293 141.155C75.9741 141.925 77.4392 143.081 77.8151 145.368C78.5262 149.696 72.0034 151.711 69.1748 152.175C67.6306 152.428 63.1166 153.167 60.8508 150.514Z" fill="black"/>
<path fill-rule="evenodd" clip-rule="evenodd" d="M60.3877 135.546C59.8815 136.282 59.135 136.469 58.2477 136.359C56.4834 136.141 55.5409 133.726 55.5788 132.212C55.6036 131.22 55.5293 130.418 56.2822 129.771C57.1634 129.013 58.378 128.948 59.2594 129.727C60.8333 131.118 61.6553 133.704 60.3877 135.546Z" fill="black"/>
<path fill-rule="evenodd" clip-rule="evenodd" d="M86.9844 129.943C86.4781 130.679 85.7317 130.866 84.8444 130.757C83.0801 130.539 82.1376 128.123 82.1755 126.609C82.2003 125.618 82.126 124.816 82.8789 124.168C83.7601 123.411 84.9747 123.345 85.8561 124.124C87.43 125.515 88.252 128.101 86.9844 129.943Z" fill="black"/>
</svg>
